<svg width="50" height="34" viewBox="0 0 50 34" fill="none" xmlns="http://www.w3.org/2000/svg">
<path d="M47.5 19.8332H44.8L42.9752 13.1246C42.5832 11.6746 41.2583 10.6665 39.7582 10.6665H29.1667V7.33318C29.1667 5.95806 28.0418 4.83318 26.6667 4.83318H2.5C1.12488 4.83318 0 5.95808 0 7.33318V27.3332C0 28.7083 1.1249 29.8332 2.5 29.8332H5.88357C5.85009 29.5583 5.83335 29.283 5.83335 28.9998C5.83335 28.7166 5.85009 28.4413 5.88357 28.1665C6.30024 24.8834 9.10857 22.3332 12.5 22.3332C15.8914 22.3332 18.6998 24.8834 19.1164 28.1665C19.1499 28.4413 19.1667 28.7166 19.1667 28.9998C19.1667 29.283 19.1499 29.5583 19.1164 29.8332H30.0498C30.0167 29.5583 30 29.283 30 28.9998C30 28.7166 30.0167 28.4413 30.0502 28.1665C30.4669 24.8834 33.2752 22.3332 36.6667 22.3332C40.0581 22.3332 42.8664 24.8834 43.2831 28.1665C43.3166 28.4413 43.3333 28.7166 43.3333 28.9998C43.3333 29.283 43.3166 29.5583 43.2831 29.8332H47.5C48.8751 29.8332 50 28.7083 50 27.3332V22.3332C50 20.9581 48.8751 19.8332 47.5 19.8332H47.5ZM15.8333 15.6665H12.5V18.9998C12.5 19.4584 12.1252 19.8332 11.6667 19.8332H10C9.54148 19.8332 9.16667 19.4584 9.16667 18.9998V15.6665H5.83333C5.37481 15.6665 5 15.2917 5 14.8332V13.1665C5 12.708 5.37481 12.3332 5.83333 12.3332H9.16667V8.99984C9.16667 8.54132 9.54148 8.16651 10 8.16651H11.6667C11.975 8.16651 12.2414 8.33299 12.3833 8.58318C12.4581 8.70827 12.5 8.84964 12.5 8.99984V12.3332H15.8333C16.2919 12.3332 16.6667 12.708 16.6667 13.1665V14.8332C16.6667 15.2917 16.2919 15.6665 15.8333 15.6665H15.8333ZM41.5083 19.4831C41.3498 19.7081 41.0996 19.8332 40.8331 19.8332H33.3331C32.8746 19.8332 32.4998 19.4584 32.4998 18.9999V13.9999C32.4998 13.5414 32.8746 13.1666 33.3331 13.1666H39.1664C39.525 13.1666 39.8417 13.4 39.9579 13.7334L41.6246 18.7334C41.7083 18.9915 41.6664 19.2664 41.5083 19.4831H41.5083Z" fill="#32CB71"/>
<path d="M41.5751 28.0498C41.5667 27.9996 41.5584 27.9582 41.55 27.9163C41.5249 27.7996 41.4998 27.6913 41.4584 27.5829C41.45 27.5327 41.4333 27.4829 41.4165 27.4327C41.3914 27.3495 41.3584 27.2746 41.3249 27.1909C41.2915 27.0993 41.2584 27.016 41.2166 26.9323C41.2082 26.9072 41.1998 26.8821 41.1831 26.8575C41.1831 26.8491 41.1747 26.8491 41.1747 26.8407C41.1245 26.7408 41.0831 26.6408 41.0245 26.5492C40.9497 26.4157 40.8664 26.2827 40.7743 26.1576C40.6325 25.9409 40.466 25.7409 40.2744 25.5493C40.1661 25.4242 40.041 25.3075 39.908 25.1992C39.8661 25.1573 39.8164 25.1243 39.7745 25.0825C39.7164 25.0406 39.6662 24.9992 39.608 24.9657C39.5913 24.949 39.5829 24.9406 39.5662 24.9322C39.4495 24.849 39.3328 24.7658 39.2077 24.6988C39.0826 24.6239 38.9491 24.5486 38.8245 24.4905C38.8161 24.4905 38.8077 24.4821 38.7994 24.4821C38.6994 24.4319 38.5994 24.3905 38.4994 24.3486C38.4413 24.3235 38.3827 24.2984 38.3162 24.2821C38.2413 24.257 38.1581 24.2319 38.0827 24.2073C38.0576 24.1989 38.0409 24.1905 38.0163 24.1822C38.0079 24.1822 37.9995 24.1822 37.9744 24.1738C37.9079 24.157 37.8409 24.1403 37.7744 24.1236H37.7577C37.7075 24.1068 37.6577 24.0984 37.5996 24.0901C37.5912 24.0817 37.5828 24.0817 37.5745 24.0817C37.4494 24.0566 37.3159 24.0399 37.1745 24.0236C37.0085 24.0082 36.8416 23.9999 36.6667 23.9999C36.4919 23.9999 36.3249 24.0082 36.1585 24.025C36.0166 24.0417 35.8836 24.0585 35.7585 24.0831C35.7502 24.0831 35.7418 24.0831 35.7334 24.0915C35.6753 24.0998 35.6251 24.1082 35.5753 24.125H35.5586C35.4921 24.1417 35.4251 24.1584 35.3586 24.1752C35.3335 24.1836 35.3251 24.1836 35.3168 24.1836C35.2916 24.1919 35.2749 24.2003 35.2503 24.2087C35.1754 24.2338 35.0922 24.2589 35.0168 24.2835C34.9503 24.3003 34.8917 24.3254 34.8336 24.35C34.7336 24.3919 34.6336 24.4333 34.5337 24.4835C34.5253 24.4835 34.5169 24.4919 34.5085 24.4919C34.3834 24.55 34.25 24.6253 34.1253 24.7002C34.0003 24.7667 33.8835 24.8504 33.7668 24.9336C33.7501 24.942 33.7417 24.9504 33.725 24.9671C33.6668 24.9997 33.6166 25.0415 33.5585 25.0834C33.5166 25.1252 33.4669 25.1583 33.425 25.2001C33.2916 25.3085 33.1665 25.4252 33.0586 25.5503C32.8754 25.7419 32.7084 25.9418 32.5587 26.1585C32.4671 26.2836 32.3838 26.4171 32.3085 26.5501C32.2504 26.6417 32.2085 26.7417 32.1583 26.8417C32.1583 26.85 32.1499 26.85 32.1499 26.8584C32.1332 26.8835 32.1248 26.9086 32.1164 26.9333C32.0746 27.0165 32.0416 27.0998 32.0081 27.1918C31.9746 27.2751 31.9416 27.3499 31.9165 27.4336C31.8997 27.4839 31.883 27.5336 31.8746 27.5838C31.8328 27.6922 31.8081 27.8005 31.783 27.9173C31.7746 27.9591 31.7663 28.0005 31.7579 28.0507V28.0591C31.7002 28.3665 31.6667 28.6748 31.6667 28.9999C31.6667 29.2831 31.6919 29.5667 31.7416 29.8332C31.7667 29.9834 31.7997 30.1248 31.8332 30.2666C31.8667 30.4168 31.9165 30.5498 31.9667 30.6916C32.0085 30.8084 32.0499 30.9251 32.1002 31.0418C32.4085 31.7249 32.867 32.3253 33.425 32.8001C33.5334 32.8917 33.6501 32.9834 33.7668 33.0666C33.8836 33.1498 34.0003 33.2331 34.1254 33.3C34.2505 33.3749 34.3839 33.4502 34.5086 33.5084C34.6169 33.5586 34.7253 33.6084 34.8336 33.6502C34.9001 33.6753 34.9587 33.7004 35.0168 33.7167C35.1168 33.7502 35.2168 33.7832 35.3168 33.8167C35.3335 33.8167 35.3503 33.8251 35.3586 33.8251C35.4837 33.8585 35.6172 33.8916 35.7586 33.9167C35.892 33.9418 36.025 33.9585 36.1585 33.9748C36.325 33.9915 36.4919 33.9999 36.6668 33.9999C36.8416 33.9999 37.0086 33.9915 37.175 33.9748C37.3085 33.9581 37.4415 33.9413 37.575 33.9167C37.7168 33.8916 37.8498 33.8585 37.9749 33.8251C37.9833 33.8251 38 33.8167 38.0168 33.8167C38.1167 33.7832 38.2167 33.7502 38.3167 33.7167C38.3748 33.7 38.4334 33.6749 38.4999 33.6502C38.6083 33.6084 38.7166 33.5586 38.825 33.5084C38.9501 33.4502 39.0835 33.3749 39.2082 33.3C39.3333 33.2335 39.45 33.1498 39.5667 33.0666C39.6834 32.9834 39.8001 32.8917 39.9085 32.8001C40.467 32.3253 40.9251 31.725 41.2334 31.0418C41.2836 30.9251 41.325 30.8084 41.3669 30.6916C41.4171 30.5498 41.4668 30.4168 41.5003 30.2666C41.5338 30.1248 41.5668 29.9834 41.5919 29.8332C41.6421 29.5667 41.6668 29.2831 41.6668 28.9999C41.6668 28.6748 41.6333 28.3665 41.5752 28.0582L41.5751 28.0498Z" fill="#32CB71"/>
<path d="M17.4084 28.0498C17.4 27.9996 17.3916 27.9582 17.3833 27.9163C17.3581 27.7996 17.333 27.6913 17.2916 27.5829C17.2833 27.5327 17.2665 27.4829 17.2498 27.4327C17.2247 27.3495 17.1917 27.2746 17.1582 27.1909C17.1247 27.0993 17.0917 27.016 17.0498 26.9323C17.0415 26.9072 17.0331 26.8821 17.0164 26.8575C17.0164 26.8491 17.008 26.8491 17.008 26.8407C16.9578 26.7408 16.9164 26.6408 16.8578 26.5492C16.7829 26.4157 16.6997 26.2827 16.6076 26.1576C16.4658 25.9409 16.2993 25.7409 16.1077 25.5493C15.9993 25.4242 15.8742 25.3075 15.7412 25.1992C15.6994 25.1573 15.6496 25.1243 15.6078 25.0825C15.5496 25.0406 15.4994 24.9992 15.4413 24.9657C15.4246 24.949 15.4162 24.9406 15.3995 24.9322C15.2827 24.849 15.166 24.7658 15.0409 24.6988C14.9158 24.6239 14.7824 24.5486 14.6577 24.4905C14.6494 24.4905 14.641 24.4821 14.6326 24.4821C14.5326 24.4319 14.4326 24.3905 14.3327 24.3486C14.2745 24.3235 14.2159 24.2984 14.1494 24.2821C14.0746 24.257 13.9913 24.2319 13.916 24.2073C13.8909 24.1989 13.8742 24.1905 13.8495 24.1822C13.8411 24.1822 13.8328 24.1822 13.8077 24.1738C13.7412 24.157 13.6742 24.1403 13.6077 24.1236H13.5909C13.5407 24.1068 13.491 24.0984 13.4328 24.0901C13.4245 24.0817 13.4161 24.0817 13.4077 24.0817C13.2826 24.0566 13.1492 24.0399 13.0078 24.0236C12.8418 24.0082 12.6748 23.9999 12.5 23.9999C12.3251 23.9999 12.1582 24.0082 11.9917 24.025C11.8499 24.0417 11.7169 24.0585 11.5918 24.0831C11.5834 24.0831 11.575 24.0831 11.5667 24.0915C11.5085 24.0998 11.4583 24.1082 11.4086 24.125H11.3918C11.3253 24.1417 11.2584 24.1584 11.1919 24.1752C11.1668 24.1836 11.1584 24.1836 11.15 24.1836C11.1249 24.1919 11.1082 24.2003 11.0835 24.2087C11.0086 24.2338 10.9254 24.2589 10.8501 24.2835C10.7836 24.3003 10.725 24.3254 10.6668 24.35C10.5669 24.3919 10.4669 24.4333 10.3669 24.4835C10.3585 24.4835 10.3502 24.4919 10.3418 24.4919C10.2167 24.55 10.0832 24.6253 9.9586 24.7002C9.83351 24.7667 9.71679 24.8504 9.60007 24.9336C9.58333 24.942 9.57495 24.9504 9.55821 24.9671C9.50009 24.9997 9.44986 25.0415 9.39174 25.0834C9.34989 25.1252 9.30013 25.1583 9.25828 25.2001C9.12481 25.3085 8.99971 25.4252 8.89183 25.5503C8.70861 25.7419 8.54167 25.9418 8.39193 26.1585C8.30032 26.2836 8.21707 26.4171 8.14174 26.5501C8.08361 26.6417 8.04176 26.7417 7.99154 26.8417C7.99154 26.85 7.98317 26.85 7.98317 26.8584C7.96643 26.8835 7.95805 26.9086 7.94968 26.9333C7.90783 27.0165 7.87481 27.0998 7.84133 27.1918C7.80785 27.2751 7.77483 27.3499 7.74972 27.4336C7.73298 27.4839 7.71624 27.5336 7.70787 27.5838C7.66602 27.6922 7.64137 27.8005 7.61626 27.9173C7.60789 27.9591 7.59952 28.0005 7.59115 28.0507V28.0591C7.53348 28.3665 7.5 28.6748 7.5 28.9999C7.5 29.2831 7.52511 29.5667 7.57487 29.8332C7.59998 29.9834 7.633 30.1248 7.66648 30.2666C7.69996 30.4168 7.74972 30.5498 7.79995 30.6916C7.8418 30.8084 7.88319 30.9251 7.93341 31.0418C8.24172 31.7249 8.70024 32.3253 9.25829 32.8001C9.36664 32.8917 9.48336 32.9834 9.60009 33.0666C9.71681 33.1498 9.83353 33.2331 9.95862 33.3C10.0837 33.3749 10.2172 33.4502 10.3418 33.5084C10.4502 33.5586 10.5585 33.6084 10.6669 33.6502C10.7334 33.6753 10.792 33.7004 10.8501 33.7167C10.9501 33.7502 11.0501 33.7832 11.15 33.8167C11.1668 33.8167 11.1835 33.8251 11.1919 33.8251C11.317 33.8585 11.4505 33.8916 11.5918 33.9167C11.7253 33.9418 11.8583 33.9585 11.9918 33.9748C12.1582 33.9915 12.3252 33.9999 12.5 33.9999C12.6749 33.9999 12.8418 33.9915 13.0083 33.9748C13.1418 33.9581 13.2748 33.9413 13.4082 33.9167C13.5501 33.8916 13.6831 33.8585 13.8082 33.8251C13.8165 33.8251 13.8333 33.8167 13.85 33.8167C13.95 33.7832 14.05 33.7502 14.1499 33.7167C14.2081 33.7 14.2667 33.6749 14.3332 33.6502C14.4415 33.6084 14.5499 33.5586 14.6582 33.5084C14.7833 33.4502 14.9168 33.3749 15.0414 33.3C15.1665 33.2335 15.2832 33.1498 15.4 33.0666C15.5167 32.9834 15.6334 32.8917 15.7418 32.8001C16.3003 32.3253 16.7583 31.725 17.0666 31.0418C17.1169 30.9251 17.1583 30.8084 17.2001 30.6916C17.2503 30.5498 17.3001 30.4168 17.3336 30.2666C17.3671 30.1248 17.4001 29.9834 17.4252 29.8332C17.4754 29.5667 17.5 29.2831 17.5 28.9999C17.5 28.6748 17.4666 28.3665 17.4084 28.0582L17.4084 28.0498Z" fill="#32CB71"/>
<path d="M36.3084 8.99982H37.9834L37.6086 6.38316C37.5505 5.97486 37.2003 5.66655 36.7836 5.66655H33.2169C32.8002 5.66655 32.45 5.97486 32.3919 6.38316L32.0171 8.99982H36.3084Z" fill="#32CB71"/>
<path d="M35.0001 4.83317C35.4605 4.83317 35.8334 4.46022 35.8334 3.99984V1.49984C35.8334 1.03946 35.4605 0.666504 35.0001 0.666504C34.5397 0.666504 34.1667 1.03946 34.1667 1.49984V3.99984C34.1667 4.46022 34.5397 4.83317 35.0001 4.83317Z" fill="#32CB71"/>
<path d="M30.3453 5.52355C30.508 5.68631 30.7215 5.76769 30.9344 5.76769C31.1474 5.76769 31.3609 5.68631 31.5236 5.52355C31.8492 5.19802 31.8492 4.67068 31.5236 4.34517L29.756 2.57755C29.4305 2.25202 28.9031 2.25202 28.5776 2.57755C28.2521 2.90307 28.2521 3.43042 28.5776 3.75593L30.3453 5.52355Z" fill="#32CB71"/>
<path d="M39.0655 5.76769C39.279 5.76769 39.4919 5.68631 39.6547 5.52354L41.4223 3.75592C41.7478 3.4304 41.7478 2.90305 41.4223 2.57754C41.0968 2.25203 40.5695 2.25202 40.2439 2.57754L38.4763 4.34516C38.1508 4.67069 38.1508 5.19803 38.4763 5.52354C38.6391 5.6863 38.8521 5.76769 39.0655 5.76769Z" fill="#32CB71"/>
</svg>
