<svg width="16" height="16" viewBox="0 0 16 16" fill="none" xmlns="http://www.w3.org/2000/svg">
<path d="M10.3162 15.132C9.57304 15.3733 8.78889 15.5 8.00015 15.5C6.64183 15.5 5.36661 15.1369 4.26646 14.5027L4.26646 14.1661L4.26645 12.6501C4.26645 12.2312 3.92688 11.8916 3.50798 11.8916C3.08924 11.8916 2.74952 12.2309 2.74952 12.6501V13.3503C2.48847 13.0941 2.24602 12.819 2.02442 12.5272L2.12247 12.4092C2.77445 11.6245 3.95995 10.9571 5.47788 10.6103C6.15304 11.0758 6.95861 11.3284 7.78441 11.3284C8.61082 11.3284 9.41541 11.0762 10.0881 10.6104C10.4528 10.6939 10.8023 10.7969 11.1317 10.9169C10.4205 11.5882 9.97479 12.5396 9.97479 13.5946C9.97479 14.1453 10.0996 14.6653 10.3162 15.132Z" fill="#162B95" stroke="#1855B0"/>
</svg>
