<svg width="6" height="9" viewBox="0 0 6 9" fill="none" xmlns="http://www.w3.org/2000/svg">
<path fill-rule="evenodd" clip-rule="evenodd" d="M4.93013 4.68625L2.67051 7.76755L0.410885 4.68625H0.42113C0.154102 4.27544 0 3.78238 0 3.24834C0 1.7693 1.19146 0.577881 2.67046 0.577881C4.14947 0.577881 5.34093 1.76934 5.34093 3.24834C5.34085 3.78245 5.18682 4.27544 4.93005 4.68625H4.93013ZM2.67051 2.22121C2.10558 2.22121 1.64341 2.68338 1.64341 3.24831C1.64341 3.81323 2.10558 4.27541 2.67051 4.27541C3.23543 4.27541 3.69761 3.81323 3.69761 3.24831C3.69761 2.68338 3.23543 2.22121 2.67051 2.22121ZM2.67051 8.17839C4.14955 8.17839 5.34097 8.36323 5.34097 8.5892C5.34097 8.81516 4.14951 9 2.67051 9C1.1915 9 4.42183e-05 8.81516 4.42183e-05 8.5892C4.42183e-05 8.36323 1.1915 8.17839 2.67051 8.17839Z" fill="#909090"/>
</svg>
