<svg width="32" height="32" viewBox="0 0 32 32" fill="none" xmlns="http://www.w3.org/2000/svg">
<path d="M26.1397 16C26.1397 16.5867 25.6597 17.0667 25.073 17.0667H9.49971L14.3264 21.92C14.753 22.3467 14.753 23.0133 14.3264 23.44C14.113 23.6533 13.8464 23.76 13.5797 23.76C13.313 23.76 13.0197 23.6533 12.833 23.44L6.19305 16.7733C5.76638 16.3467 5.76638 15.68 6.19305 15.28L12.833 8.61333C13.2597 8.18667 13.9264 8.18667 14.353 8.61333C14.7797 9.04 14.7797 9.70667 14.353 10.1333L9.49971 14.9333H25.073C25.6597 14.9333 26.1397 15.4133 26.1397 16Z" fill="white"/>
</svg>
