<svg width="12" height="17" viewBox="0 0 12 17" fill="none" xmlns="http://www.w3.org/2000/svg">
<path d="M10.4318 5.19249V7.38047H8.97875V5.19249C8.97875 4.12831 8.411 3.14493 7.48938 2.61277C6.56775 2.08075 5.43225 2.08075 4.5106 2.61277C3.58897 3.14493 3.02122 4.12835 3.02122 5.19249V7.38047H1.56818V5.19249C1.56818 3.60922 2.41292 2.1461 3.78407 1.35458C5.15526 0.562797 6.84472 0.562797 8.2158 1.35458C9.58699 2.14623 10.4317 3.60931 10.4317 5.19249H10.4318Z" fill="#1F97DE"/>
<path d="M10.9557 7.62365H1.04432C0.767328 7.62414 0.501752 7.73442 0.306014 7.93053C0.110273 8.12652 0.000247689 8.39222 0 8.66922V14.9993C0.000496172 15.276 0.110647 15.5413 0.306385 15.7369C0.50225 15.9325 0.767563 16.0426 1.04431 16.0428H10.9557C11.2326 16.0426 11.498 15.9325 11.6939 15.7367C11.8896 15.5409 11.9998 15.2754 12 14.9985V8.66878C11.9996 8.39179 11.8895 8.12634 11.6937 7.93047C11.498 7.73461 11.2326 7.62434 10.9557 7.62384L10.9557 7.62365ZM7.01521 13.0836C7.04362 13.2058 7.01472 13.3342 6.93682 13.4324C6.85892 13.5308 6.74033 13.5881 6.61492 13.5882H5.38514C5.25973 13.5881 5.14115 13.5308 5.06324 13.4324C4.98534 13.3342 4.95644 13.2058 4.98484 13.0836L5.16793 12.2928C4.91315 12.0662 4.76045 11.7463 4.74432 11.4057C4.72832 11.0649 4.85037 10.7321 5.08283 10.4826C5.31516 10.233 5.63841 10.0876 5.9794 10.0794H5.99999C6.34482 10.079 6.67478 10.2197 6.91333 10.4688C7.15187 10.7179 7.278 11.0538 7.26263 11.3983C7.24737 11.7428 7.0917 12.066 6.83207 12.2929L7.01521 13.0836Z" fill="#1F97DE"/>
</svg>
