<svg width="13" height="13" viewBox="0 0 13 13" fill="none" xmlns="http://www.w3.org/2000/svg">
<path d="M9.12881 8.97403C8.95066 8.79656 8.71143 8.71559 8.47325 8.7281L8.47422 8.72732C7.40806 8.77271 7.07017 9.61233 6.99425 9.85624C3.48605 8.70746 3.16431 6.0191 3.16431 6.0191L3.84383 5.06599L3.16431 6.0191C3.85867 5.7335 4.12709 5.21768 4.23126 4.8513C4.28674 4.7163 4.30885 4.5717 4.29692 4.43052V4.43313V4.43052C4.28043 4.23404 4.19868 4.04434 4.05118 3.89645L2.33856 2.18334C1.99827 1.84305 1.43298 1.85343 1.0794 2.207L0.596653 2.69248L0.609745 2.70557C0.44789 2.91214 0.312699 3.15031 0.211954 3.40721C0.119146 3.65179 0.0613477 3.88502 0.0349698 4.11883C-0.191086 5.99389 0.665606 7.70722 2.99078 10.0324C6.20479 13.2462 8.79491 13.0034 8.90663 12.9915C9.14995 12.9625 9.38317 12.9042 9.62029 12.8122C9.87486 12.7127 10.1129 12.5777 10.3193 12.4161L10.3298 12.4255L10.8188 11.9467C11.1716 11.5931 11.1818 11.0282 10.8417 10.6867L9.12881 8.97403ZM4.29663 4.44001V4.43536V4.44001ZM4.26249 4.72271C4.26249 4.72242 4.26269 4.72193 4.26269 4.72164C4.26269 4.72212 4.26269 4.72242 4.26249 4.72271ZM4.29644 4.45098C4.29644 4.44942 4.29644 4.44787 4.29663 4.44652C4.29644 4.44807 4.29644 4.44942 4.29644 4.45098ZM12.2647 8.056C11.9109 8.056 11.624 7.76913 11.624 7.41536C11.624 4.03327 8.87229 1.28128 5.48996 1.28128C5.13619 1.28128 4.84932 0.994416 4.84932 0.640642C4.84932 0.286867 5.13619 0 5.48996 0C7.47062 0 9.33282 0.771252 10.7333 2.1719C12.1337 3.57255 12.9052 5.43457 12.9052 7.41521C12.9053 7.76908 12.6186 8.05595 12.2646 8.05595L12.2647 8.056ZM9.75101 7.75875C9.39724 7.75875 9.11037 7.47188 9.11037 7.11811C9.11037 5.28571 7.61973 3.79512 5.78738 3.79512C5.4336 3.79512 5.14674 3.50825 5.14674 3.15447C5.14674 2.8007 5.4336 2.51383 5.78738 2.51383C8.32611 2.51383 10.3917 4.57935 10.3917 7.11811C10.3917 7.47188 10.1049 7.75875 9.75101 7.75875Z" fill="#018336"/>
</svg>
