<svg width="11" height="14" viewBox="0 0 11 14" fill="none" xmlns="http://www.w3.org/2000/svg">
<path d="M9.94157 3.31876C9.30236 3.71428 8.61934 3.989 7.91496 4.13414C8.03948 4.96981 8.10505 5.8174 8.11107 6.66731H10.8261C10.7967 5.46871 10.4895 4.30597 9.94154 3.31876H9.94157Z" fill="#1F97DE"/>
<path d="M1.79947 10.7507C1.8118 10.7701 1.82365 10.7903 1.83618 10.8096C1.86464 10.8534 1.89378 10.8963 1.92312 10.939C1.9576 10.9893 1.99247 11.0392 2.02811 11.088C2.05822 11.1293 2.08892 11.1697 2.1199 11.2098C2.15681 11.2576 2.19421 11.3047 2.23209 11.3511C2.26365 11.3895 2.29571 11.4274 2.32805 11.4647C2.36719 11.5098 2.40682 11.5542 2.44694 11.5978C2.48015 11.6338 2.51376 11.6692 2.54766 11.7042C2.58855 11.7463 2.63003 11.7875 2.67208 11.8278C2.70685 11.8613 2.74192 11.8945 2.77737 11.9269C2.82021 11.966 2.86352 12.0039 2.90733 12.0412C2.94346 12.0721 2.97969 12.1027 3.01641 12.1324C3.06089 12.1684 3.10606 12.203 3.15142 12.2372C3.18891 12.2654 3.2263 12.2936 3.26428 12.3206C3.31042 12.3535 3.35724 12.3846 3.40405 12.4155C3.44261 12.4409 3.48108 12.4665 3.52012 12.4908C3.56772 12.5202 3.61599 12.5478 3.66427 12.5755C3.7039 12.5982 3.74343 12.6212 3.78354 12.6426C3.83259 12.6687 3.88232 12.6929 3.93205 12.7171C3.97236 12.7368 4.01257 12.7571 4.05327 12.7754C4.10388 12.7982 4.15516 12.8188 4.20635 12.8397C4.24733 12.8564 4.28803 12.8739 4.32931 12.8892C4.38137 12.9086 4.43411 12.9255 4.48666 12.9427C4.52794 12.9564 4.56893 12.9709 4.6105 12.9832C4.6648 12.9992 4.71977 13.0125 4.77455 13.0264C4.8034 13.0336 4.83206 13.0416 4.8611 13.0482C4.35718 12.4534 3.94788 11.3741 3.69895 10.0026L3.69905 10.0025C3.04032 10.1375 2.40051 10.3894 1.79947 10.7507L1.79947 10.7507Z" fill="#1F97DE"/>
<path d="M5.7739 13.1538C6.51103 13.1538 7.17043 11.839 7.52088 9.9359C6.36261 9.72174 5.18519 9.72174 4.02682 9.9359C4.37727 11.8389 5.03667 13.1538 5.7738 13.1538H5.7739Z" fill="#1F97DE"/>
<path d="M1.60626 10.4211C2.24547 10.0256 2.92849 9.75087 3.63287 9.60573C3.50835 8.77006 3.44279 7.92247 3.43677 7.07256H0.721741C0.751171 8.27116 1.05829 9.4339 1.60629 10.4211H1.60626Z" fill="#1F97DE"/>
<path d="M0.721804 6.66731H3.43683C3.44285 5.8174 3.50842 4.96981 3.63294 4.13414C2.92856 3.98911 2.24553 3.71425 1.60633 3.31876C1.05832 4.30597 0.751187 5.46871 0.721771 6.66731H0.721804Z" fill="#1F97DE"/>
<path d="M6.93735 12.983C6.97882 12.9707 7.01981 12.9562 7.061 12.9425C7.11364 12.9252 7.16638 12.9083 7.21854 12.889C7.25982 12.8735 7.30052 12.8562 7.34151 12.8395C7.39269 12.8186 7.44398 12.7981 7.49458 12.7752C7.53537 12.7569 7.57549 12.7366 7.6158 12.7169C7.66553 12.6927 7.71526 12.6685 7.76431 12.6424C7.80442 12.621 7.84396 12.5979 7.88359 12.5753C7.93186 12.5476 7.98013 12.52 8.02773 12.4906C8.06677 12.4663 8.10524 12.4407 8.1438 12.4153C8.19071 12.3844 8.23753 12.3531 8.28357 12.3204C8.32154 12.2934 8.35904 12.2652 8.39643 12.2369C8.44179 12.2028 8.48696 12.1682 8.53144 12.1322C8.56816 12.1025 8.60439 12.0719 8.64052 12.041C8.68423 12.0036 8.72764 11.9657 8.77048 11.9266C8.80584 11.8943 8.8408 11.8611 8.87557 11.8277C8.91763 11.7871 8.9592 11.7459 9.00029 11.7038C9.03409 11.669 9.0676 11.6336 9.10072 11.5976C9.14093 11.554 9.18056 11.5096 9.21971 11.4644C9.25205 11.427 9.2841 11.3891 9.31567 11.3507C9.35365 11.3045 9.39104 11.2574 9.42786 11.2095C9.45884 11.1693 9.48953 11.1289 9.51964 11.0877C9.55529 11.039 9.59016 10.989 9.62464 10.9387C9.65397 10.896 9.68311 10.853 9.71157 10.8092C9.7241 10.7899 9.73595 10.7699 9.74829 10.7504L9.74838 10.7506C9.14734 10.3894 8.50766 10.1374 7.84881 10.0024C7.59996 11.3739 7.19055 12.453 6.68666 13.048C6.71561 13.0414 6.74426 13.0334 6.77301 13.0262C6.82798 13.0124 6.88296 12.9991 6.93735 12.983L6.93735 12.983Z" fill="#1F97DE"/>
<path d="M10.826 7.07256H8.11098C8.10495 7.92247 8.03939 8.77006 7.91487 9.60573C8.61925 9.75075 9.30227 10.0256 9.94148 10.4211C10.4895 9.4339 10.7966 8.27116 10.826 7.07256H10.826Z" fill="#1F97DE"/>
<path d="M7.58857 4.20123C6.98813 4.31489 6.38144 4.37123 5.77399 4.3699C5.16653 4.37123 4.55987 4.31489 3.9594 4.20123C3.83595 5.01457 3.77029 5.83961 3.7632 6.66719H7.78464C7.77755 5.83961 7.71189 5.01457 7.58844 4.20123H7.58857Z" fill="#1F97DE"/>
<path d="M3.95926 9.53866C5.16222 9.31376 6.38546 9.31376 7.58834 9.53866C7.71179 8.72545 7.77745 7.90028 7.78454 7.07271H3.76309C3.77018 7.90028 3.83584 8.72545 3.95929 9.53866H3.95926Z" fill="#1F97DE"/>
<path d="M5.77394 0.586208C5.03681 0.586208 4.37741 1.90098 4.02696 3.8041C4.60518 3.9122 5.18921 3.9659 5.77394 3.96469C6.35867 3.9659 6.9427 3.9122 7.52092 3.8041C7.17047 1.90113 6.51107 0.586208 5.77394 0.586208Z" fill="#1F97DE"/>
<path d="M9.62478 2.80115C9.5903 2.75084 9.55543 2.70101 9.51978 2.65214C9.48967 2.61088 9.45898 2.57046 9.42799 2.5304C9.39108 2.48262 9.35369 2.43544 9.31581 2.38911C9.28424 2.35062 9.25219 2.31274 9.21984 2.27546C9.1807 2.23021 9.14107 2.18593 9.10086 2.14225C9.06774 2.1063 9.03423 2.07094 9.00043 2.03607C8.95934 1.99385 8.91777 1.95258 8.87571 1.91216C8.84094 1.87874 8.80607 1.84556 8.77062 1.81323C8.72778 1.77413 8.68436 1.73625 8.64066 1.69885C8.60452 1.66796 8.56829 1.63731 8.53158 1.60763C8.48709 1.57167 8.44193 1.53705 8.39657 1.5029C8.35908 1.47467 8.32168 1.44644 8.2837 1.41941C8.23757 1.38659 8.19075 1.35546 8.14393 1.32457C8.10537 1.29912 8.06691 1.27354 8.02786 1.24929C7.98027 1.21985 7.932 1.19221 7.88372 1.16459C7.84409 1.1419 7.80456 1.11886 7.76445 1.0975C7.7154 1.07132 7.66567 1.04719 7.61594 1.02293C7.57563 1.00327 7.53541 0.982996 7.49472 0.964658C7.44411 0.941854 7.39283 0.921224 7.34164 0.90035C7.30065 0.883699 7.25996 0.866203 7.21868 0.85088C7.16652 0.831454 7.11378 0.814562 7.06113 0.797308C7.01995 0.783795 6.97906 0.769195 6.93749 0.756888C6.88309 0.740841 6.82812 0.727569 6.77324 0.713695C6.74449 0.706456 6.71584 0.698492 6.68689 0.691856C7.19081 1.28669 7.60011 2.36594 7.84904 3.73745L7.84884 3.73757C8.50767 3.60256 9.14738 3.35064 9.74842 2.98938C9.73608 2.96995 9.72423 2.94981 9.7117 2.9305C9.68325 2.8867 9.65401 2.84387 9.62477 2.80116L9.62478 2.80115Z" fill="#1F97DE"/>
<path d="M4.61048 0.756849C4.5689 0.769156 4.52792 0.783755 4.48664 0.797269C4.43399 0.814522 4.38135 0.831415 4.32929 0.85084C4.28801 0.866284 4.24731 0.883659 4.20632 0.90031C4.15513 0.921183 4.10385 0.941694 4.05325 0.964619C4.01245 0.982958 3.97234 1.00323 3.93203 1.02289C3.8823 1.04715 3.83257 1.07128 3.78352 1.09746C3.7434 1.11882 3.70387 1.14186 3.66424 1.16455C3.61597 1.19218 3.56769 1.21981 3.5201 1.24925C3.48105 1.2735 3.44259 1.29908 3.40403 1.32454C3.35712 1.35542 3.3103 1.38667 3.26426 1.41937C3.22628 1.4464 3.18879 1.47463 3.15139 1.50286C3.10603 1.53701 3.06087 1.57164 3.01638 1.60759C2.97967 1.63727 2.94344 1.66792 2.90731 1.69881C2.8636 1.73621 2.82018 1.77409 2.77735 1.81307C2.74189 1.84552 2.70683 1.8787 2.67206 1.91224C2.6301 1.95266 2.58872 1.99381 2.54763 2.03579C2.51374 2.07066 2.48013 2.10614 2.44691 2.14221C2.4067 2.18577 2.36707 2.23005 2.32803 2.27529C2.29568 2.3127 2.26363 2.35058 2.23206 2.38895C2.19408 2.43516 2.15669 2.48234 2.11988 2.53024C2.08889 2.57042 2.0582 2.61084 2.02809 2.65198C1.99244 2.70073 1.95757 2.75068 1.92309 2.80099C1.89376 2.8437 1.86462 2.88665 1.83616 2.93045C1.82363 2.94976 1.81178 2.96979 1.79944 2.98933H1.79935C2.40039 3.35056 3.04007 3.60251 3.69892 3.73753C3.94777 2.36605 4.35718 1.28689 4.86107 0.691929C4.83212 0.698565 4.80338 0.706528 4.77453 0.713767C4.71975 0.727643 4.66477 0.740794 4.61047 0.756841L4.61048 0.756849Z" fill="#1F97DE"/>
</svg>
