<svg width="18" height="16" viewBox="0 0 18 16" fill="none" xmlns="http://www.w3.org/2000/svg">
<path d="M17.6408 13.5018L14.2882 10.5812C14.1369 10.4494 13.9317 10.3761 13.7165 10.3761H13.1684C14.0965 9.34205 14.648 8.0414 14.648 6.6265C14.648 3.26061 11.5173 0.53334 7.65353 0.53334C3.78976 0.53334 0.659058 3.26061 0.659058 6.6265C0.659058 9.99238 3.78976 12.7197 7.65353 12.7197C9.27773 12.7197 10.7708 12.2392 11.9578 11.4307V11.9082C11.9578 12.0957 12.0419 12.2744 12.1932 12.4062L15.5459 15.3268C15.862 15.6022 16.3731 15.6022 16.6858 15.3268L17.6375 14.4978C17.9536 14.2224 17.9536 13.7772 17.6408 13.5018ZM7.65353 10.3761C5.27608 10.3761 3.34924 8.70051 3.34924 6.6265C3.34924 4.55541 5.27272 2.87686 7.65353 2.87686C10.031 2.87686 11.9578 4.55248 11.9578 6.6265C11.9578 8.69758 10.0343 10.3761 7.65353 10.3761Z" fill="#144072"/>
</svg>
