<svg width="345" height="70" viewBox="0 0 345 70" fill="none" xmlns="http://www.w3.org/2000/svg">
<path d="M0 5C0 2.23858 2.23858 0 5 0H340C342.761 0 345 2.23858 345 5V65C345 67.7614 342.761 70 340 70H5C2.23858 70 0 67.7614 0 65V5Z" fill="white"/>
<path d="M86.7518 32L82.6878 27.024V32H80.4478V20.832H82.6878V25.84L86.7518 20.832H89.4558L84.8478 26.368L89.5838 32H86.7518ZM93.2971 30.224H96.9771V32H91.0571V20.832H93.2971V30.224ZM101.989 23.408C102.043 22.3413 102.416 21.52 103.109 20.944C103.813 20.3573 104.736 20.064 105.877 20.064C106.656 20.064 107.323 20.2027 107.877 20.48C108.432 20.7467 108.848 21.1147 109.125 21.584C109.413 22.0427 109.557 22.5653 109.557 23.152C109.557 23.824 109.381 24.3947 109.029 24.864C108.688 25.3227 108.277 25.632 107.797 25.792V25.856C108.416 26.048 108.896 26.3893 109.237 26.88C109.589 27.3707 109.765 28 109.765 28.768C109.765 29.408 109.616 29.9787 109.317 30.48C109.029 30.9813 108.597 31.376 108.021 31.664C107.456 31.9413 106.773 32.08 105.973 32.08C104.768 32.08 103.787 31.776 103.029 31.168C102.272 30.56 101.872 29.664 101.829 28.48H104.005C104.027 29.0027 104.203 29.424 104.533 29.744C104.875 30.0533 105.339 30.208 105.925 30.208C106.469 30.208 106.885 30.0587 107.173 29.76C107.472 29.4507 107.621 29.056 107.621 28.576C107.621 27.936 107.419 27.4773 107.013 27.2C106.608 26.9227 105.979 26.784 105.125 26.784H104.661V24.944H105.125C106.64 24.944 107.397 24.4373 107.397 23.424C107.397 22.9653 107.259 22.608 106.981 22.352C106.715 22.096 106.325 21.968 105.813 21.968C105.312 21.968 104.923 22.1067 104.645 22.384C104.379 22.6507 104.224 22.992 104.181 23.408H101.989ZM112.24 29.472C113.264 28.6187 114.08 27.9093 114.688 27.344C115.296 26.768 115.802 26.1707 116.208 25.552C116.613 24.9333 116.816 24.3253 116.816 23.728C116.816 23.184 116.688 22.7573 116.432 22.448C116.176 22.1387 115.781 21.984 115.248 21.984C114.714 21.984 114.304 22.1653 114.016 22.528C113.728 22.88 113.578 23.3653 113.568 23.984H111.392C111.434 22.704 111.813 21.7333 112.528 21.072C113.253 20.4107 114.17 20.08 115.28 20.08C116.496 20.08 117.429 20.4053 118.08 21.056C118.73 21.696 119.056 22.544 119.056 23.6C119.056 24.432 118.832 25.2267 118.384 25.984C117.936 26.7413 117.424 27.4027 116.848 27.968C116.272 28.5227 115.52 29.1947 114.592 29.984H119.312V31.84H111.408V30.176L112.24 29.472ZM131.128 26.272C131.757 26.3893 132.274 26.704 132.68 27.216C133.085 27.728 133.288 28.3147 133.288 28.976C133.288 29.5733 133.138 30.1013 132.84 30.56C132.552 31.008 132.13 31.36 131.576 31.616C131.021 31.872 130.365 32 129.608 32H124.792V20.832H129.4C130.157 20.832 130.808 20.9547 131.352 21.2C131.906 21.4453 132.322 21.7867 132.6 22.224C132.888 22.6613 133.032 23.1573 133.032 23.712C133.032 24.3627 132.856 24.9067 132.503 25.344C132.162 25.7813 131.704 26.0907 131.128 26.272ZM127.032 25.44H129.08C129.613 25.44 130.024 25.3227 130.312 25.088C130.6 24.8427 130.744 24.496 130.744 24.048C130.744 23.6 130.6 23.2533 130.312 23.008C130.024 22.7627 129.613 22.64 129.08 22.64H127.032V25.44ZM129.288 30.176C129.832 30.176 130.253 30.048 130.552 29.792C130.861 29.536 131.016 29.1733 131.016 28.704C131.016 28.224 130.856 27.8507 130.536 27.584C130.216 27.3067 129.784 27.168 129.24 27.168H127.032V30.176H129.288ZM138.533 29.728V27.968L143.765 20.48H146.373V27.776H147.781V29.728H146.373V32H144.133V29.728H138.533ZM144.277 22.88L140.997 27.776H144.277V22.88ZM155.255 23.248C155.149 22.8 154.962 22.464 154.695 22.24C154.439 22.016 154.066 21.904 153.575 21.904C152.839 21.904 152.295 22.2027 151.943 22.8C151.602 23.3867 151.426 24.3467 151.415 25.68C151.671 25.2533 152.045 24.9227 152.535 24.688C153.026 24.4427 153.559 24.32 154.135 24.32C154.829 24.32 155.442 24.4693 155.975 24.768C156.509 25.0667 156.925 25.504 157.223 26.08C157.522 26.6453 157.671 27.328 157.671 28.128C157.671 28.8853 157.517 29.5627 157.207 30.16C156.909 30.7467 156.466 31.2053 155.879 31.536C155.293 31.8667 154.594 32.032 153.783 32.032C152.674 32.032 151.799 31.7867 151.159 31.296C150.53 30.8053 150.087 30.1227 149.831 29.248C149.586 28.3627 149.463 27.2747 149.463 25.984C149.463 24.032 149.799 22.56 150.471 21.568C151.143 20.5653 152.205 20.064 153.655 20.064C154.775 20.064 155.645 20.368 156.263 20.976C156.882 21.584 157.239 22.3413 157.335 23.248H155.255ZM153.623 26.16C153.058 26.16 152.583 26.3253 152.199 26.656C151.815 26.9867 151.623 27.4667 151.623 28.096C151.623 28.7253 151.799 29.2213 152.151 29.584C152.514 29.9467 153.021 30.128 153.671 30.128C154.247 30.128 154.701 29.952 155.031 29.6C155.373 29.248 155.543 28.7733 155.543 28.176C155.543 27.5573 155.378 27.0667 155.047 26.704C154.727 26.3413 154.253 26.16 153.623 26.16ZM167.282 22.272H162.098V25.008C162.322 24.7307 162.642 24.5067 163.058 24.336C163.474 24.1547 163.916 24.064 164.386 24.064C165.239 24.064 165.938 24.2507 166.482 24.624C167.026 24.9973 167.42 25.4773 167.666 26.064C167.911 26.64 168.034 27.2587 168.034 27.92C168.034 29.1467 167.682 30.1333 166.978 30.88C166.284 31.6267 165.292 32 164.002 32C162.786 32 161.815 31.696 161.09 31.088C160.364 30.48 159.954 29.6853 159.858 28.704H162.034C162.13 29.1307 162.343 29.472 162.674 29.728C163.015 29.984 163.447 30.112 163.97 30.112C164.599 30.112 165.074 29.9147 165.394 29.52C165.714 29.1253 165.874 28.6027 165.874 27.952C165.874 27.2907 165.708 26.7893 165.378 26.448C165.058 26.096 164.583 25.92 163.954 25.92C163.506 25.92 163.132 26.032 162.834 26.256C162.535 26.48 162.322 26.7787 162.194 27.152H160.05V20.304H167.282V22.272ZM177.163 22.032L172.907 32H170.635L174.923 22.288H169.451V20.368H177.163V22.032Z" fill="#505050"/>
<path fill-rule="evenodd" clip-rule="evenodd" d="M327.278 40.7281C326.907 40.3656 326.907 39.7774 327.278 39.4148L332.311 34.5L327.278 29.5852C326.907 29.2226 326.907 28.6344 327.278 28.2719C327.65 27.9094 328.252 27.9094 328.623 28.2719L334.328 33.8434L335 34.5L334.328 35.1566L328.623 40.7281C328.252 41.0906 327.65 41.0906 327.278 40.7281Z" fill="#505050"/>
<rect x="5.5" y="5.5" width="59" height="59" rx="4.5" fill="#EBEBEB" stroke="#EBEBEB"/>
<rect x="80.5" y="20.5" width="99" height="12" rx="1.5" fill="#EBEBEB" stroke="#EBEBEB"/>
<rect x="326.5" y="27.5" width="8" height="13" rx="1.5" fill="#EBEBEB" stroke="#EBEBEB"/>
<path fill-rule="evenodd" clip-rule="evenodd" d="M85.9301 45.6862L83.6705 48.7676L81.4109 45.6862H81.4211C81.1541 45.2754 81 44.7824 81 44.2483C81 42.7693 82.1915 41.5779 83.6705 41.5779C85.1495 41.5779 86.3409 42.7693 86.3409 44.2483C86.3409 44.7825 86.1868 45.2754 85.93 45.6862H85.9301ZM83.6705 43.2212C83.1056 43.2212 82.6434 43.6834 82.6434 44.2483C82.6434 44.8132 83.1056 45.2754 83.6705 45.2754C84.2354 45.2754 84.6976 44.8132 84.6976 44.2483C84.6976 43.6834 84.2354 43.2212 83.6705 43.2212ZM83.6705 49.1784C85.1496 49.1784 86.341 49.3632 86.341 49.5892C86.341 49.8152 85.1495 50 83.6705 50C82.1915 50 81 49.8152 81 49.5892C81 49.3632 82.1915 49.1784 83.6705 49.1784Z" fill="#909090"/>
<path d="M93.268 48.896H96.088V50H91.9V41.66H93.268V48.896ZM102.26 48.296H98.768L98.168 50H96.74L99.728 41.648H101.312L104.3 50H102.86L102.26 48.296ZM101.876 47.18L100.52 43.304L99.152 47.18H101.876ZM110.987 41.66V42.776H108.767V50H107.399V42.776H105.167V41.66H110.987ZM116.813 38.672L113.549 52.1H112.205L115.457 38.672H116.813ZM119.905 48.896H122.725V50H118.537V41.66H119.905V48.896ZM127.673 50.084C126.897 50.084 126.181 49.904 125.525 49.544C124.877 49.176 124.361 48.668 123.977 48.02C123.601 47.364 123.413 46.628 123.413 45.812C123.413 44.996 123.601 44.264 123.977 43.616C124.361 42.968 124.877 42.464 125.525 42.104C126.181 41.736 126.897 41.552 127.673 41.552C128.457 41.552 129.173 41.736 129.821 42.104C130.477 42.464 130.993 42.968 131.369 43.616C131.745 44.264 131.933 44.996 131.933 45.812C131.933 46.628 131.745 47.364 131.369 48.02C130.993 48.668 130.477 49.176 129.821 49.544C129.173 49.904 128.457 50.084 127.673 50.084ZM127.673 48.896C128.225 48.896 128.717 48.772 129.149 48.524C129.581 48.268 129.917 47.908 130.157 47.444C130.405 46.972 130.529 46.428 130.529 45.812C130.529 45.196 130.405 44.656 130.157 44.192C129.917 43.728 129.581 43.372 129.149 43.124C128.717 42.876 128.225 42.752 127.673 42.752C127.121 42.752 126.629 42.876 126.197 43.124C125.765 43.372 125.425 43.728 125.177 44.192C124.937 44.656 124.817 45.196 124.817 45.812C124.817 46.428 124.937 46.972 125.177 47.444C125.425 47.908 125.765 48.268 126.197 48.524C126.629 48.772 127.121 48.896 127.673 48.896ZM140.131 50H138.763L134.647 43.772V50H133.279V41.648H134.647L138.763 47.864V41.648H140.131V50ZM147.963 44.06C147.747 43.644 147.447 43.332 147.063 43.124C146.679 42.908 146.235 42.8 145.731 42.8C145.179 42.8 144.687 42.924 144.255 43.172C143.823 43.42 143.483 43.772 143.235 44.228C142.995 44.684 142.875 45.212 142.875 45.812C142.875 46.412 142.995 46.944 143.235 47.408C143.483 47.864 143.823 48.216 144.255 48.464C144.687 48.712 145.179 48.836 145.731 48.836C146.475 48.836 147.079 48.628 147.543 48.212C148.007 47.796 148.291 47.232 148.395 46.52H145.263V45.428H149.859V46.496C149.771 47.144 149.539 47.74 149.163 48.284C148.795 48.828 148.311 49.264 147.711 49.592C147.119 49.912 146.459 50.072 145.731 50.072C144.947 50.072 144.231 49.892 143.583 49.532C142.935 49.164 142.419 48.656 142.035 48.008C141.659 47.36 141.471 46.628 141.471 45.812C141.471 44.996 141.659 44.264 142.035 43.616C142.419 42.968 142.935 42.464 143.583 42.104C144.239 41.736 144.955 41.552 145.731 41.552C146.619 41.552 147.407 41.772 148.095 42.212C148.791 42.644 149.295 43.26 149.607 44.06H147.963ZM151.761 50.084C151.513 50.084 151.305 50 151.137 49.832C150.969 49.664 150.885 49.456 150.885 49.208C150.885 48.96 150.969 48.752 151.137 48.584C151.305 48.416 151.513 48.332 151.761 48.332C152.001 48.332 152.205 48.416 152.373 48.584C152.541 48.752 152.625 48.96 152.625 49.208C152.625 49.456 152.541 49.664 152.373 49.832C152.205 50 152.001 50.084 151.761 50.084ZM151.761 45.044C151.513 45.044 151.305 44.96 151.137 44.792C150.969 44.624 150.885 44.416 150.885 44.168C150.885 43.92 150.969 43.712 151.137 43.544C151.305 43.376 151.513 43.292 151.761 43.292C152.001 43.292 152.205 43.376 152.373 43.544C152.541 43.712 152.625 43.92 152.625 44.168C152.625 44.416 152.541 44.624 152.373 44.792C152.205 44.96 152.001 45.044 151.761 45.044Z" fill="#909090"/>
<path d="M159.612 49.124C160.628 48.308 161.424 47.64 162 47.12C162.576 46.592 163.06 46.044 163.452 45.476C163.852 44.9 164.052 44.336 164.052 43.784C164.052 43.264 163.924 42.856 163.668 42.56C163.42 42.256 163.016 42.104 162.456 42.104C161.912 42.104 161.488 42.276 161.184 42.62C160.888 42.956 160.728 43.408 160.704 43.976H159.648C159.68 43.08 159.952 42.388 160.464 41.9C160.976 41.412 161.636 41.168 162.444 41.168C163.268 41.168 163.92 41.396 164.4 41.852C164.888 42.308 165.132 42.936 165.132 43.736C165.132 44.4 164.932 45.048 164.532 45.68C164.14 46.304 163.692 46.856 163.188 47.336C162.684 47.808 162.04 48.36 161.256 48.992H165.384V49.904H159.612V49.124ZM172.178 42.272H167.966V45.008C168.15 44.752 168.422 44.544 168.782 44.384C169.142 44.216 169.53 44.132 169.946 44.132C170.61 44.132 171.15 44.272 171.566 44.552C171.982 44.824 172.278 45.18 172.454 45.62C172.638 46.052 172.73 46.512 172.73 47C172.73 47.576 172.622 48.092 172.406 48.548C172.19 49.004 171.858 49.364 171.41 49.628C170.97 49.892 170.422 50.024 169.766 50.024C168.926 50.024 168.246 49.808 167.726 49.376C167.206 48.944 166.89 48.368 166.778 47.648H167.846C167.95 48.104 168.17 48.46 168.506 48.716C168.842 48.972 169.266 49.1 169.778 49.1C170.41 49.1 170.886 48.912 171.206 48.536C171.526 48.152 171.686 47.648 171.686 47.024C171.686 46.4 171.526 45.92 171.206 45.584C170.886 45.24 170.414 45.068 169.79 45.068C169.366 45.068 168.994 45.172 168.674 45.38C168.362 45.58 168.134 45.856 167.99 46.208H166.958V41.312H172.178V42.272ZM174.71 50.072C174.502 50.072 174.326 50 174.182 49.856C174.038 49.712 173.966 49.536 173.966 49.328C173.966 49.12 174.038 48.944 174.182 48.8C174.326 48.656 174.502 48.584 174.71 48.584C174.91 48.584 175.078 48.656 175.214 48.8C175.358 48.944 175.43 49.12 175.43 49.328C175.43 49.536 175.358 49.712 175.214 49.856C175.078 50 174.91 50.072 174.71 50.072ZM176.569 49.124C177.585 48.308 178.381 47.64 178.957 47.12C179.533 46.592 180.017 46.044 180.409 45.476C180.809 44.9 181.009 44.336 181.009 43.784C181.009 43.264 180.881 42.856 180.625 42.56C180.377 42.256 179.973 42.104 179.413 42.104C178.869 42.104 178.445 42.276 178.141 42.62C177.845 42.956 177.685 43.408 177.661 43.976H176.605C176.637 43.08 176.909 42.388 177.421 41.9C177.933 41.412 178.593 41.168 179.401 41.168C180.225 41.168 180.877 41.396 181.357 41.852C181.845 42.308 182.089 42.936 182.089 43.736C182.089 44.4 181.889 45.048 181.489 45.68C181.097 46.304 180.649 46.856 180.145 47.336C179.641 47.808 178.997 48.36 178.213 48.992H182.341V49.904H176.569V49.124ZM185.187 45.488C184.739 45.312 184.395 45.056 184.155 44.72C183.915 44.384 183.795 43.976 183.795 43.496C183.795 43.064 183.903 42.676 184.119 42.332C184.335 41.98 184.655 41.704 185.079 41.504C185.511 41.296 186.031 41.192 186.639 41.192C187.247 41.192 187.763 41.296 188.187 41.504C188.619 41.704 188.943 41.98 189.159 42.332C189.383 42.676 189.495 43.064 189.495 43.496C189.495 43.96 189.371 44.368 189.123 44.72C188.875 45.064 188.535 45.32 188.103 45.488C188.599 45.64 188.991 45.908 189.279 46.292C189.575 46.668 189.723 47.124 189.723 47.66C189.723 48.18 189.595 48.636 189.339 49.028C189.083 49.412 188.719 49.712 188.247 49.928C187.783 50.136 187.247 50.24 186.639 50.24C186.031 50.24 185.495 50.136 185.031 49.928C184.575 49.712 184.219 49.412 183.963 49.028C183.707 48.636 183.579 48.18 183.579 47.66C183.579 47.124 183.723 46.664 184.011 46.28C184.299 45.896 184.691 45.632 185.187 45.488ZM188.439 43.628C188.439 43.14 188.279 42.764 187.959 42.5C187.639 42.236 187.199 42.104 186.639 42.104C186.087 42.104 185.651 42.236 185.331 42.5C185.011 42.764 184.851 43.144 184.851 43.64C184.851 44.088 185.015 44.448 185.343 44.72C185.679 44.992 186.111 45.128 186.639 45.128C187.175 45.128 187.607 44.992 187.935 44.72C188.271 44.44 188.439 44.076 188.439 43.628ZM186.639 45.968C186.047 45.968 185.563 46.108 185.187 46.388C184.811 46.66 184.623 47.072 184.623 47.624C184.623 48.136 184.803 48.548 185.163 48.86C185.531 49.172 186.023 49.328 186.639 49.328C187.255 49.328 187.743 49.172 188.103 48.86C188.463 48.548 188.643 48.136 188.643 47.624C188.643 47.088 188.459 46.68 188.091 46.4C187.723 46.112 187.239 45.968 186.639 45.968ZM196.01 43.388C195.834 42.5 195.286 42.056 194.366 42.056C193.654 42.056 193.122 42.332 192.77 42.884C192.418 43.428 192.246 44.328 192.254 45.584C192.438 45.168 192.742 44.844 193.166 44.612C193.598 44.372 194.078 44.252 194.606 44.252C195.43 44.252 196.086 44.508 196.574 45.02C197.07 45.532 197.318 46.24 197.318 47.144C197.318 47.688 197.21 48.176 196.994 48.608C196.786 49.04 196.466 49.384 196.034 49.64C195.61 49.896 195.094 50.024 194.486 50.024C193.662 50.024 193.018 49.84 192.554 49.472C192.09 49.104 191.766 48.596 191.582 47.948C191.398 47.3 191.306 46.5 191.306 45.548C191.306 42.612 192.33 41.144 194.378 41.144C195.162 41.144 195.778 41.356 196.226 41.78C196.674 42.204 196.938 42.74 197.018 43.388H196.01ZM194.378 45.176C194.034 45.176 193.71 45.248 193.406 45.392C193.102 45.528 192.854 45.74 192.662 46.028C192.478 46.308 192.386 46.652 192.386 47.06C192.386 47.668 192.562 48.164 192.914 48.548C193.266 48.924 193.77 49.112 194.426 49.112C194.986 49.112 195.43 48.94 195.758 48.596C196.094 48.244 196.262 47.772 196.262 47.18C196.262 46.556 196.102 46.068 195.782 45.716C195.462 45.356 194.994 45.176 194.378 45.176ZM198.767 43.508C198.823 42.772 199.107 42.196 199.619 41.78C200.131 41.364 200.795 41.156 201.611 41.156C202.155 41.156 202.623 41.256 203.015 41.456C203.415 41.648 203.715 41.912 203.915 42.248C204.123 42.584 204.227 42.964 204.227 43.388C204.227 43.884 204.083 44.312 203.795 44.672C203.515 45.032 203.147 45.264 202.691 45.368V45.428C203.211 45.556 203.623 45.808 203.927 46.184C204.231 46.56 204.383 47.052 204.383 47.66C204.383 48.116 204.279 48.528 204.071 48.896C203.863 49.256 203.551 49.54 203.135 49.748C202.719 49.956 202.219 50.06 201.635 50.06C200.787 50.06 200.091 49.84 199.547 49.4C199.003 48.952 198.699 48.32 198.635 47.504H199.691C199.747 47.984 199.943 48.376 200.279 48.68C200.615 48.984 201.063 49.136 201.623 49.136C202.183 49.136 202.607 48.992 202.895 48.704C203.191 48.408 203.339 48.028 203.339 47.564C203.339 46.964 203.139 46.532 202.739 46.268C202.339 46.004 201.735 45.872 200.927 45.872H200.651V44.96H200.939C201.675 44.952 202.231 44.832 202.607 44.6C202.983 44.36 203.171 43.992 203.171 43.496C203.171 43.072 203.031 42.732 202.751 42.476C202.479 42.22 202.087 42.092 201.575 42.092C201.079 42.092 200.679 42.22 200.375 42.476C200.071 42.732 199.891 43.076 199.835 43.508H198.767ZM207.261 47.672C207.341 48.128 207.525 48.48 207.813 48.728C208.109 48.976 208.505 49.1 209.001 49.1C209.665 49.1 210.153 48.84 210.465 48.32C210.785 47.8 210.937 46.924 210.921 45.692C210.753 46.052 210.473 46.336 210.081 46.544C209.689 46.744 209.253 46.844 208.773 46.844C208.237 46.844 207.757 46.736 207.333 46.52C206.917 46.296 206.589 45.972 206.349 45.548C206.109 45.124 205.989 44.612 205.989 44.012C205.989 43.156 206.237 42.468 206.733 41.948C207.229 41.42 207.933 41.156 208.845 41.156C209.965 41.156 210.749 41.52 211.197 42.248C211.653 42.976 211.881 44.06 211.881 45.5C211.881 46.508 211.789 47.34 211.605 47.996C211.429 48.652 211.125 49.152 210.693 49.496C210.269 49.84 209.685 50.012 208.941 50.012C208.125 50.012 207.489 49.792 207.033 49.352C206.577 48.912 206.317 48.352 206.253 47.672H207.261ZM208.953 45.92C209.489 45.92 209.929 45.756 210.273 45.428C210.617 45.092 210.789 44.64 210.789 44.072C210.789 43.472 210.621 42.988 210.285 42.62C209.949 42.252 209.477 42.068 208.869 42.068C208.309 42.068 207.861 42.244 207.525 42.596C207.197 42.948 207.033 43.412 207.033 43.988C207.033 44.572 207.197 45.04 207.525 45.392C207.853 45.744 208.329 45.92 208.953 45.92ZM213.152 48.068V47.24L217.364 41.408H218.672V47.12H219.872V48.068H218.672V50H217.592V48.068H213.152ZM217.64 42.548L214.412 47.12H217.64V42.548ZM225.223 38.696L221.935 52.04H220.855L224.131 38.696H225.223ZM232.202 42.272H227.99V45.008C228.174 44.752 228.446 44.544 228.806 44.384C229.166 44.216 229.554 44.132 229.97 44.132C230.634 44.132 231.174 44.272 231.59 44.552C232.006 44.824 232.302 45.18 232.478 45.62C232.662 46.052 232.754 46.512 232.754 47C232.754 47.576 232.646 48.092 232.43 48.548C232.214 49.004 231.882 49.364 231.434 49.628C230.994 49.892 230.446 50.024 229.79 50.024C228.95 50.024 228.27 49.808 227.75 49.376C227.23 48.944 226.914 48.368 226.802 47.648H227.87C227.974 48.104 228.194 48.46 228.53 48.716C228.866 48.972 229.29 49.1 229.802 49.1C230.434 49.1 230.91 48.912 231.23 48.536C231.55 48.152 231.71 47.648 231.71 47.024C231.71 46.4 231.55 45.92 231.23 45.584C230.91 45.24 230.438 45.068 229.814 45.068C229.39 45.068 229.018 45.172 228.698 45.38C228.386 45.58 228.158 45.856 228.014 46.208H226.982V41.312H232.202V42.272ZM239.737 42.272H235.525V45.008C235.709 44.752 235.981 44.544 236.341 44.384C236.701 44.216 237.089 44.132 237.505 44.132C238.169 44.132 238.709 44.272 239.125 44.552C239.541 44.824 239.837 45.18 240.013 45.62C240.197 46.052 240.289 46.512 240.289 47C240.289 47.576 240.181 48.092 239.965 48.548C239.749 49.004 239.417 49.364 238.969 49.628C238.529 49.892 237.981 50.024 237.325 50.024C236.485 50.024 235.805 49.808 235.285 49.376C234.765 48.944 234.449 48.368 234.337 47.648H235.405C235.509 48.104 235.729 48.46 236.065 48.716C236.401 48.972 236.825 49.1 237.337 49.1C237.969 49.1 238.445 48.912 238.765 48.536C239.085 48.152 239.245 47.648 239.245 47.024C239.245 46.4 239.085 45.92 238.765 45.584C238.445 45.24 237.973 45.068 237.349 45.068C236.925 45.068 236.553 45.172 236.233 45.38C235.921 45.58 235.693 45.856 235.549 46.208H234.517V41.312H239.737V42.272ZM242.268 50.072C242.06 50.072 241.884 50 241.74 49.856C241.596 49.712 241.524 49.536 241.524 49.328C241.524 49.12 241.596 48.944 241.74 48.8C241.884 48.656 242.06 48.584 242.268 48.584C242.468 48.584 242.636 48.656 242.772 48.8C242.916 48.944 242.988 49.12 242.988 49.328C242.988 49.536 242.916 49.712 242.772 49.856C242.636 50 242.468 50.072 242.268 50.072ZM244.236 43.508C244.292 42.772 244.576 42.196 245.088 41.78C245.6 41.364 246.264 41.156 247.08 41.156C247.624 41.156 248.092 41.256 248.484 41.456C248.884 41.648 249.184 41.912 249.384 42.248C249.592 42.584 249.696 42.964 249.696 43.388C249.696 43.884 249.552 44.312 249.264 44.672C248.984 45.032 248.616 45.264 248.16 45.368V45.428C248.68 45.556 249.092 45.808 249.396 46.184C249.7 46.56 249.852 47.052 249.852 47.66C249.852 48.116 249.748 48.528 249.54 48.896C249.332 49.256 249.02 49.54 248.604 49.748C248.188 49.956 247.688 50.06 247.104 50.06C246.256 50.06 245.56 49.84 245.016 49.4C244.472 48.952 244.168 48.32 244.104 47.504H245.16C245.216 47.984 245.412 48.376 245.748 48.68C246.084 48.984 246.532 49.136 247.092 49.136C247.652 49.136 248.076 48.992 248.364 48.704C248.66 48.408 248.808 48.028 248.808 47.564C248.808 46.964 248.608 46.532 248.208 46.268C247.808 46.004 247.204 45.872 246.396 45.872H246.12V44.96H246.408C247.144 44.952 247.7 44.832 248.076 44.6C248.452 44.36 248.64 43.992 248.64 43.496C248.64 43.072 248.5 42.732 248.22 42.476C247.948 42.22 247.556 42.092 247.044 42.092C246.548 42.092 246.148 42.22 245.844 42.476C245.54 42.732 245.36 43.076 245.304 43.508H244.236ZM251.194 49.124C252.21 48.308 253.006 47.64 253.582 47.12C254.158 46.592 254.642 46.044 255.034 45.476C255.434 44.9 255.634 44.336 255.634 43.784C255.634 43.264 255.506 42.856 255.25 42.56C255.002 42.256 254.598 42.104 254.038 42.104C253.494 42.104 253.07 42.276 252.766 42.62C252.47 42.956 252.31 43.408 252.286 43.976H251.23C251.262 43.08 251.534 42.388 252.046 41.9C252.558 41.412 253.218 41.168 254.026 41.168C254.85 41.168 255.502 41.396 255.982 41.852C256.47 42.308 256.714 42.936 256.714 43.736C256.714 44.4 256.514 45.048 256.114 45.68C255.722 46.304 255.274 46.856 254.77 47.336C254.266 47.808 253.622 48.36 252.838 48.992H256.966V49.904H251.194V49.124ZM259.632 47.672C259.712 48.128 259.896 48.48 260.184 48.728C260.48 48.976 260.876 49.1 261.372 49.1C262.036 49.1 262.524 48.84 262.836 48.32C263.156 47.8 263.308 46.924 263.292 45.692C263.124 46.052 262.844 46.336 262.452 46.544C262.06 46.744 261.624 46.844 261.144 46.844C260.608 46.844 260.128 46.736 259.704 46.52C259.288 46.296 258.96 45.972 258.72 45.548C258.48 45.124 258.36 44.612 258.36 44.012C258.36 43.156 258.608 42.468 259.104 41.948C259.6 41.42 260.304 41.156 261.216 41.156C262.336 41.156 263.12 41.52 263.568 42.248C264.024 42.976 264.252 44.06 264.252 45.5C264.252 46.508 264.16 47.34 263.976 47.996C263.8 48.652 263.496 49.152 263.064 49.496C262.64 49.84 262.056 50.012 261.312 50.012C260.496 50.012 259.86 49.792 259.404 49.352C258.948 48.912 258.688 48.352 258.624 47.672H259.632ZM261.324 45.92C261.86 45.92 262.3 45.756 262.644 45.428C262.988 45.092 263.16 44.64 263.16 44.072C263.16 43.472 262.992 42.988 262.656 42.62C262.32 42.252 261.848 42.068 261.24 42.068C260.68 42.068 260.232 42.244 259.896 42.596C259.568 42.948 259.404 43.412 259.404 43.988C259.404 44.572 259.568 45.04 259.896 45.392C260.224 45.744 260.7 45.92 261.324 45.92ZM265.523 48.068V47.24L269.735 41.408H271.043V47.12H272.243V48.068H271.043V50H269.963V48.068H265.523ZM270.011 42.548L266.783 47.12H270.011V42.548ZM273.31 43.508C273.366 42.772 273.65 42.196 274.162 41.78C274.674 41.364 275.338 41.156 276.154 41.156C276.698 41.156 277.166 41.256 277.558 41.456C277.958 41.648 278.258 41.912 278.458 42.248C278.666 42.584 278.77 42.964 278.77 43.388C278.77 43.884 278.626 44.312 278.338 44.672C278.058 45.032 277.69 45.264 277.234 45.368V45.428C277.754 45.556 278.166 45.808 278.47 46.184C278.774 46.56 278.926 47.052 278.926 47.66C278.926 48.116 278.822 48.528 278.614 48.896C278.406 49.256 278.094 49.54 277.678 49.748C277.262 49.956 276.762 50.06 276.178 50.06C275.33 50.06 274.634 49.84 274.09 49.4C273.546 48.952 273.242 48.32 273.178 47.504H274.234C274.29 47.984 274.486 48.376 274.822 48.68C275.158 48.984 275.606 49.136 276.166 49.136C276.726 49.136 277.15 48.992 277.438 48.704C277.734 48.408 277.882 48.028 277.882 47.564C277.882 46.964 277.682 46.532 277.282 46.268C276.882 46.004 276.278 45.872 275.47 45.872H275.194V44.96H275.482C276.218 44.952 276.774 44.832 277.15 44.6C277.526 44.36 277.714 43.992 277.714 43.496C277.714 43.072 277.574 42.732 277.294 42.476C277.022 42.22 276.63 42.092 276.118 42.092C275.622 42.092 275.222 42.22 274.918 42.476C274.614 42.732 274.434 43.076 274.378 43.508H273.31ZM285.74 42.176L282.404 50H281.3L284.684 42.284H280.052V41.348H285.74V42.176Z" fill="#0000EE"/>
<rect x="80.5" y="38.5" width="207" height="14" rx="1.5" fill="#EBEBEB" stroke="#EBEBEB"/>
</svg>
