<svg width="11" height="16" viewBox="0 0 11 16" fill="none" xmlns="http://www.w3.org/2000/svg">
<path d="M0.00209671 15.013C0.0277527 14.7275 0.0474869 14.4391 0.0810369 14.1565C0.339564 12.0814 1.06581 10.4595 2.21829 9.23799C3.01559 10.3653 3.95497 10.9599 5.0522 10.9569C6.14552 10.9569 7.08299 10.3683 7.88809 9.2321C8.04794 9.42048 8.21569 9.60003 8.36963 9.80312C9.34059 11.0894 9.91291 12.6936 10.0688 14.6215C10.0787 14.751 10.0925 14.8835 10.1043 15.013V15.4839H0C0.0019736 15.3279 0.00197364 15.169 0.00197364 15.013L0.00209671 15.013Z" fill="#1F97DE"/>
<path d="M5.29114 0.413933C5.49047 0.4728 5.69373 0.511065 5.88714 0.59348C7.07124 1.08503 7.94752 2.64797 8.06985 4.47591C8.23958 7.01017 6.99232 9.23538 5.2852 9.4442C3.74785 9.63552 2.33293 8.00194 2.07238 5.73265C1.79215 3.30731 2.8085 1.04693 4.42092 0.514092C4.55117 0.469942 4.68537 0.446395 4.81759 0.414016H5.29123L5.29114 0.413933Z" fill="#1F97DE"/>
</svg>
