<svg width="12" height="12" viewBox="0 0 12 12" fill="none" xmlns="http://www.w3.org/2000/svg">
<path d="M6.8743 6L11.8188 1.05582C12.0604 0.814422 12.0604 0.422789 11.8188 0.181524C11.5773 -0.0600171 11.1861 -0.0600171 10.9446 0.181524L6 5.1257L1.05582 0.181156C0.814422 -0.0603852 0.422789 -0.0603852 0.181524 0.181156C-0.0600168 0.422553 -0.0600168 0.814186 0.181524 1.05545L5.12571 6L0.181156 10.9442C-0.0603852 11.1856 -0.0603852 11.5772 0.181156 11.8185C0.301781 11.9392 0.460221 11.9996 0.618377 11.9996C0.77653 11.9996 0.934826 11.9392 1.0556 11.8185L5.99978 6.87429L10.944 11.8188C11.0647 11.9396 11.223 12 11.3812 12C11.5393 12 11.6976 11.9396 11.8184 11.8188C12.0599 11.5774 12.0599 11.1858 11.8184 10.9445L6.8743 6Z" fill="#505050"/>
</svg>
