<svg width="24" height="18" viewBox="0 0 24 18" fill="none" xmlns="http://www.w3.org/2000/svg">
<path d="M16.4468 7.71094H1.79841C0.817434 7.71094 0 8.28995 0 8.98482C0 9.67968 0.817434 10.2587 1.79841 10.2587H16.4795C17.4605 10.2587 18.278 9.67968 18.278 8.98482C18.2451 8.26688 17.4605 7.71094 16.447 7.71094H16.4468Z" fill="white"/>
<path d="M10.1036 0.415375H1.79841C0.817434 0.415375 0 0.994391 0 1.68925C0 2.38411 0.817434 2.96313 1.79841 2.96313H10.1036C11.0845 2.96313 11.902 2.38411 11.902 1.68925C11.9022 0.994391 11.0848 0.415375 10.1038 0.415375H10.1036Z" fill="white"/>
<path d="M22.1689 14.9834H1.79841C0.817434 14.9834 0 15.5624 0 16.2572C0 16.9521 0.817434 17.5311 1.79841 17.5311H22.2016C23.1826 17.5311 24 16.9521 24 16.2572C23.9672 15.5624 23.1826 14.9834 22.169 14.9834H22.1689Z" fill="white"/>
</svg>
